<svg id="SvgjsSvg1041" width="288" height="288" xmlns="http://www.w3.org/2000/svg" version="1.1" xmlns:xlink="http://www.w3.org/1999/xlink" xmlns:svgjs="http://svgjs.com/svgjs"><defs id="SvgjsDefs1042"></defs><g id="SvgjsG1043"><svg xmlns="http://www.w3.org/2000/svg" data-name="Layer 1" viewBox="0 0 512 512" width="288" height="288"><path fill="#fcbc5d" d="M437.08008,116.968H381.11523V89.65986A35.29991,35.29991,0,0,0,353.37109,55.227V17.15693a17.52,17.52,0,0,0-17.5-17.5H320.8252a17.51526,17.51526,0,0,0-16.91993,13.10913L197.71484,54.40937H153.38477a22.52555,22.52555,0,0,0-22.5,22.5V116.968H74.91992a37.54226,37.54226,0,0,0-37.5,37.5V396.01045a37.54227,37.54227,0,0,0,37.5,37.5H202.05713a45.09626,45.09626,0,0,1-5.05518,29.43164l-13.94433,24.9082a15.99574,15.99574,0,0,0,13.957,23.80664h117.9707a15.99488,15.99488,0,0,0,13.95606-23.80664l-13.94336-24.90918a45.09265,45.09265,0,0,1-5.05518-29.43066H437.08008a37.54227,37.54227,0,0,0,37.5-37.5V154.468A37.54226,37.54226,0,0,0,437.08008,116.968Zm-83.709-46.11231a20.277,20.277,0,0,1,12.74414,18.8042v61.33008a20.27719,20.27719,0,0,1-12.74414,18.80469ZM318.3252,17.15693a2.50263,2.50263,0,0,1,2.5-2.5h15.04589a2.50263,2.50263,0,0,1,2.5,2.5v204.146a2.50263,2.50263,0,0,1-2.5,2.5H320.8252a2.50263,2.50263,0,0,1-2.5-2.5Zm-111.708,49.87354,96.708-37.92481V209.35371l-96.708-37.92432Zm-60.73242,9.8789a7.5082,7.5082,0,0,1,7.5-7.5h38.23242v99.63477H153.38477a7.5082,7.5082,0,0,1-7.5-7.5Zm52.83105,185.58936H177.77051l-17.21778-78.45459h19.77539ZM315.85254,495.17646a.99436.99436,0,0,1-.86719,1.48047H197.01465a.99522.99522,0,0,1-.86817-1.48047l13.94336-24.90722a60.16963,60.16963,0,0,0,7.1211-36.75879h77.57812a60.16528,60.16528,0,0,0,7.1211,36.75781Zm143.72754-99.166a22.52586,22.52586,0,0,1-22.5,22.5H303.97119c-.03247,0-.06494-.00049-.09717,0H208.116c-.02637-.00049-.05274,0-.07935,0H74.91992a22.52586,22.52586,0,0,1-22.5-22.5v-21.959H459.58008Zm0-36.959H52.41992V154.468a22.52554,22.52554,0,0,1,22.5-22.5h55.96485v29.57617a22.5322,22.5322,0,0,0,13.93945,20.80371L163.1543,265.8708a14.89047,14.89047,0,0,0,14.45605,11.62793H198.9668A14.80016,14.80016,0,0,0,213.377,259.321l-17.64282-75.27685h1.9646L303.905,225.69331a17.51522,17.51522,0,0,0,16.92017,13.10962h15.04589a17.52,17.52,0,0,0,17.5-17.5V185.42329a35.3,35.3,0,0,0,27.74414-34.43335V131.968h55.96485a22.52554,22.52554,0,0,1,22.5,22.5Zm-56.21-50.89453H269.88843a26.60575,26.60575,0,0,0-51.05738,0H108.62988a7.5,7.5,0,0,0,0,15H218.83105a26.60574,26.60574,0,0,0,51.05738,0H403.37012a7.5,7.5,0,0,0,0-15ZM255.9707,315.67622a11.61085,11.61085,0,0,1-23.22168,0l.001-.01929-.001-.01928a11.61085,11.61085,0,0,1,23.22168,0l-.001.01928Z" class="color272a33 svgShape"></path></svg></g></svg>